<?xml version="1.0" encoding="UTF-8"?>
<svg width="245px" height="56px" viewBox="0 0 245 56" version="1.1" xmlns="http://www.w3.org/2000/svg" xmlns:xlink="http://www.w3.org/1999/xlink">
    <!-- Generator: Sketch 54.1 (76490) - https://sketchapp.com -->
    <title>Group</title>
    <desc>Created with Sketch.</desc>
    <g id="TV" stroke="none" stroke-width="1" fill="none" fill-rule="evenodd">
        <g id="TV-Layout" transform="translate(-1630.000000, -56.000000)" fill="#FFFFFF">
            <g id="Group" transform="translate(1630.000000, 56.000000)">
                <path d="M103.3212,31.7516114 C102.917034,31.8529591 102.537507,31.8771742 102.182609,31.8242573 C101.817389,31.7698016 101.426089,31.797029 101.008696,31.9059405 C100.799999,31.9059405 100.278265,32.1237601 99.4434782,32.5594058 C99.1304332,32.6683172 98.5565259,32.7227721 97.7217391,32.7227721 L97.4086956,32.5594058 L97.0956522,32.5594058 L96.9391304,32.2326731 C96.4173887,31.3613816 96.1043483,30.7079228 96,30.2722771 C96,29.2920742 96.260867,28.5841605 96.7826087,28.1485148 C97.2000021,27.9306919 97.721736,27.7128723 98.347826,27.4950494 C99.8087029,27.1683151 101.269558,27.0049504 102.730435,27.0049504 L104.452174,27.1683167 C105.286961,27.1683167 105.860868,26.9504971 106.173913,26.5148514 L106.956522,24.391089 L107.426087,23.410891 C107.634783,22.7574224 107.843477,22.2128734 108.052174,21.7772277 L108.052174,21.1237624 C108.052174,21.0148509 108.104347,20.7425764 108.208695,20.3069307 C108.313044,19.8712849 108.469564,19.5445555 108.678261,19.3267327 C108.886957,19.1089098 109.147824,19 109.460869,19 C109.982611,19 110.556518,19.3267294 111.182608,19.980198 C111.70435,20.9604009 111.913044,21.9405891 111.808695,22.920792 C111.599999,23.4653492 111.365218,24.0371257 111.104348,24.6361386 C110.843477,25.2351514 110.66087,25.6980181 110.556521,26.0247524 C110.347825,26.4603981 110.399998,26.7871275 110.713043,27.0049504 C110.817392,27.2227733 111.104345,27.3044556 111.573913,27.2499999 C112.04348,27.1955442 112.330434,27.1683167 112.434782,27.1683167 L118.226087,27.1683167 C118.434783,27.1683167 118.69565,27.1410893 119.008695,27.0866336 C119.32174,27.0321779 119.582607,27.0594053 119.791304,27.1683167 C120.000001,27.2772282 120.052174,27.386138 119.947826,27.4950494 C119.843477,27.6039608 119.791304,27.7128706 119.791304,27.8217821 C119.686956,27.9306935 119.530435,27.9851484 119.321739,27.9851484 C119.113042,27.9851484 118.956522,28.0396033 118.852173,28.1485148 C118.747825,28.2574262 118.747825,28.366336 118.852173,28.4752474 C118.956522,28.5841589 119.008695,28.6930687 119.008695,28.8019801 C119.113044,28.9108915 119.06087,29.0198013 118.852173,29.1287128 L118.460869,29.1287128 C118.304347,29.1287128 118.173913,29.2376226 118.069565,29.4554454 C117.965216,29.5643569 117.913043,29.6732667 117.913043,29.7821781 C117.913043,29.8910895 117.756523,29.9455444 117.443478,29.9455444 C117.130433,29.9455444 116.921739,29.9999993 116.817391,30.1089108 C116.399998,30.3267336 116.139131,30.4356434 116.034782,30.4356434 C115.826086,30.5445549 115.513045,30.5990098 115.095652,30.5990098 L115.408695,30.7623761 C115.304347,30.8712875 115.147827,30.9257424 114.93913,30.9257424 C114.730433,30.9257424 114.44348,30.8712875 114.078261,30.7623761 C113.713041,30.6534647 113.478261,30.6534647 113.373913,30.7623761 C113.165216,30.7623761 112.852176,30.8712859 112.434782,31.0891088 C112.226086,31.1980202 112.017392,31.2252477 111.808695,31.1707919 C111.599999,31.1163362 111.391305,31.1435637 111.182608,31.2524751 C110.765215,31.3613865 110.373915,31.388614 110.008695,31.3341583 C109.643476,31.2797026 109.304349,31.2524751 108.991304,31.2524751 L108.6,31.2524751 C108.443477,31.2524751 108.313044,31.30693 108.208695,31.4158414 L107.73913,32.2326731 L106.173913,35.1732671 C105.130429,36.8069387 104.347829,38.3861308 103.826087,39.9108909 C103.721738,39.9108909 103.669565,39.9381183 103.669565,39.992574 L103.669565,40.1559404 C103.669565,40.1859187 103.653753,40.2076453 103.62213,40.2211202 C103.711199,40.3899877 103.674837,40.5588541 103.513043,40.7277225 C103.513043,40.836634 103.46087,40.9183163 103.356522,40.972772 C103.252173,41.0272278 103.147826,41.0000003 103.043478,40.8910889 C102.93913,40.8910889 102.78261,40.7821791 102.573913,40.5643562 C102.052171,39.6930647 101.791304,38.7128765 101.791304,37.6237622 C101.791304,36.4257364 101.947824,35.3366384 102.260869,34.3564355 C102.573858,32.9408419 102.938997,32.0696223 103.356296,31.7427507 L103.3212,31.7516114 Z M105.283333,33.025 C105.383333,32.7249985 105.483332,32.5250005 105.583333,32.425 L105.958333,32.125 C106.208334,31.924999 106.233334,31.6750015 106.033333,31.375 L105.433333,31.525 L105.883333,31.825 L105.583333,31.975 C105.383332,31.774999 105.283333,32.0249965 105.283333,32.725 L104.833333,33.625 L105.283333,33.025 Z M108.245,27.5 C108.345,27.6000005 108.469999,27.65 108.62,27.65 C108.770001,27.65 108.795,27.550001 108.695,27.35 L108.245,27.5 Z M110.900001,29.7000001 C111.200002,29.5999996 111.649998,29.5500001 112.250001,29.5500001 C112.350001,29.6500006 112.5,29.6000011 112.700001,29.4000001 L111.650001,29.4000001 C111.55,29.4000001 111.350002,29.3750004 111.050001,29.3250001 C110.749999,29.2749999 110.550001,29.2999996 110.450001,29.4000001 C110.149999,29.6000011 110.299998,29.7000001 110.900001,29.7000001 Z M116.066667,30.175 C116.274075,30.175 116.455555,30.1250005 116.611111,30.025 C116.766667,29.9249995 116.896296,29.8250005 117,29.725 C116.896296,29.524999 116.585188,29.4499997 116.066667,29.5 C115.548146,29.5500002 115.237038,29.575 115.133333,29.575 C115.340742,29.174998 115.28889,28.9250005 114.977778,28.825 C114.874074,29.025001 114.614817,29.224999 114.2,29.425 C113.888887,29.5250005 113.474077,29.575 112.955556,29.575 L111.4,29.425 C110.777775,29.425 110.311113,29.5749985 110,29.875 C110.311113,29.875 110.674072,29.8999997 111.088889,29.95 C111.503706,30.0000003 112.022219,29.9750005 112.644444,29.875 C113.162966,29.674999 113.681479,29.674999 114.2,29.875 C114.303704,29.875 114.433333,29.9249995 114.588889,30.025 C114.744445,30.1250005 114.925925,30.075001 115.133333,29.875 L115.288889,29.875 C115.392593,29.875 115.522221,29.9249995 115.677778,30.025 C115.833334,30.1250005 115.962962,30.175 116.066667,30.175 Z M114.18125,29.5187503 C114.356249,29.5437502 114.568749,29.5562501 114.81875,29.5562501 C114.71875,29.5062498 114.58125,29.4687498 114.406251,29.4437499 L114.18125,29.5187503 Z M116.25625,29.5625005 C116.381249,29.6125004 116.543749,29.5874999 116.74375,29.4874994 C116.59375,29.4874994 116.45625,29.4624996 116.33125,29.4124997 L116.25625,29.5625005 Z M118.841176,29.7000001 C118.941177,29.4999991 118.61618,29.3750004 117.866176,29.3250001 C117.116173,29.2749999 116.541178,29.2999996 116.141176,29.4000001 C116.241177,29.5000006 116.466175,29.5250004 116.816176,29.4750001 C117.166178,29.4249999 117.391176,29.4000001 117.491176,29.4000001 L118.841176,29.7000001 Z" id="+" fill-rule="nonzero"></path>
                <path d="M34.963439,5.28279746 C34.963439,2.37773558 32.7398626,0 30.0221582,0 C27.3040845,0 25.0790309,2.37773558 25.0790309,5.28279746 L25.0790309,22.9610635 C22.784179,21.8613057 20.2138267,21.2441359 17.500554,21.2441359 C7.85065367,21.2441359 0,29.0399843 0,38.622068 C0,48.2041517 7.85065367,56 17.500554,56 C20.7397149,56 23.7779747,55.1202672 26.3834109,53.5903608 C27.2882044,54.6431799 28.5863062,55.307655 30.0221582,55.307655 C32.7398626,55.307655 34.963439,52.9299195 34.963439,50.0248576 L34.963439,39.7537293 C34.9870744,39.3789536 35,39.0012442 35,38.622068 C35,38.2414249 34.9870744,37.8637155 34.963439,37.4907734 L34.963439,5.28279746 Z M24.9344314,39.4932383 C24.4493685,43.1666264 21.3046103,46 17.5005434,46 C13.3577656,46 10,42.6428399 10,38.5 C10,34.3575223 13.3577656,31 17.5005434,31 C21.3046103,31 24.4493685,33.8333736 24.9344314,37.5053127 C24.9779023,37.8313209 25,38.1624004 25,38.5 C25,38.8375996 24.9779023,39.1686791 24.9344314,39.4932383 L24.9344314,39.4932383 Z M65.9994396,21 C63.2495797,21 61,23.3645705 61,26.2535476 L61,49.7464524 C61,52.6354295 63.2495797,55 65.9994396,55 C68.7492995,55 71,52.6354295 71,49.7464524 L71,26.2535476 C71,23.3645705 68.7492995,21 65.9994396,21 L65.9994396,21 Z M66.5001768,11 C69.5385011,11 72,8.53814745 72,5.50017683 C72,2.46185255 69.5385011,0 66.5001768,0 C63.4632672,0 61,2.46185255 61,5.50017683 C61,8.53814745 63.4632672,11 66.5001768,11 L66.5001768,11 Z M52.6807237,21.0008818 L48.8812406,21.0008818 L48.8812406,5.25341131 C48.8812406,2.36450916 46.6580446,0 43.9408049,0 C41.2235653,0 39,2.36450916 39,5.25341131 L39,49.7465887 C39,52.6354908 41.2235653,55 43.9408049,55 C46.6580446,55 48.8812406,52.6354908 48.8812406,49.7465887 L48.8812406,30.7612285 L52.6807237,30.7612285 C55.6076919,30.7612285 58,28.5641021 58,25.8801435 C58,23.1980082 55.6076919,21.0008818 52.6807237,21.0008818 L52.6807237,21.0008818 Z" id="Fill-20"></path>
                <path d="M144,46 L144,16 L172,16 L172,22.1550477 L150.068398,22.1550477 L150.068398,29.3714239 L170.867662,29.3714239 L170.867662,35.5272937 L150.068398,35.5272937 L150.068398,46 L144,46 Z M202.635891,33.5793803 L209,33.5793803 C207.545064,41.2204552 200.786703,47 192.651762,47 C183.456961,47 176,39.6114615 176,30.5012339 C176,21.3885385 183.456961,14 192.651762,14 C200.786703,14 207.545064,19.7820126 209,27.4222649 L202.635891,27.4222649 C201.311272,23.2056485 197.342364,20.1439539 192.651762,20.1439539 C186.878205,20.1439539 182.19915,24.7800932 182.19915,30.5012339 C182.19915,36.2240197 186.878205,40.8576913 192.651762,40.8576913 C197.342364,40.8576913 201.311272,37.7976419 202.635891,33.5793803 Z M226.495175,13 L245,46 L237.999065,46 L226.495175,25.4887636 L215.000935,46 L208,46 L226.495175,13 Z" id="Combined-Shape" fill-rule="nonzero"></path>
            </g>
        </g>
    </g>
</svg>