<?xml version="1.0" encoding="UTF-8"?>
<svg width="285px" height="630px" viewBox="0 0 285 630" version="1.1" xmlns="http://www.w3.org/2000/svg" xmlns:xlink="http://www.w3.org/1999/xlink">
    <!-- Generator: Sketch 54.1 (76490) - https://sketchapp.com -->
    <title>Suricato</title>
    <desc>Created with Sketch.</desc>
    <g id="TV" stroke="none" stroke-width="1" fill="none" fill-rule="evenodd" fill-opacity="0.10">
        <g id="TV-Layout" transform="translate(-24.000000, -450.000000)" fill="#FFFFFF">
            <g id="Menu" transform="translate(0.000000, -0.150000)">
                <path d="M657.6328,1331.3589 C631.1418,1332.3389 600.4898,1332.4979 570.4308,1329.8059 C501.3918,1325.9109 434.9928,1308.5459 421.8068,1303.5529 C399.7978,1295.2209 357.7528,1279.5109 335.8358,1234.3359 C333.6098,1229.7469 320.1378,1198.5719 319.0258,1175.9579 C316.0848,1116.1789 307.5938,1063.0069 295.5108,1020.5029 C283.4278,977.9989 261.5728,806.4699 260.0838,777.5869 C259.5108,766.4739 257.6978,746.4929 255.4368,725.0439 C255.4208,724.8909 255.4108,724.7469 255.4078,724.5929 C255.2198,715.9609 254.3358,700.0949 250.7118,683.5269 C250.6778,683.3759 250.6508,683.2189 250.6318,683.0639 C249.0328,670.2159 247.4628,658.7469 246.1198,650.5259 C246.0958,650.3839 246.0788,650.2479 246.0668,650.1039 C244.1218,627.9689 243.5598,604.4429 244.1538,594.5119 C245.0738,579.0949 251.9638,554.7229 246.9718,511.6169 C241.2768,462.4329 204.0008,450.5259 184.1548,450.5259 C184.1548,450.5259 166.8968,450.5259 152.9178,452.9419 C138.9388,455.3579 134.4518,459.1549 125.4778,460.3629 C116.5048,461.5709 111.6718,461.5709 104.0788,465.7119 C96.4858,469.8539 86.6488,480.7269 78.5378,486.4219 C70.4258,492.1159 47.3008,501.4359 39.3628,503.8519 C31.4238,506.2679 26.4198,509.3739 24.6938,513.8609 C22.9678,518.3479 26.7638,519.3839 26.7638,522.8349 C27.1098,531.1189 29.6978,533.8799 36.6008,535.0879 C42.7378,536.1619 45.0558,538.1909 52.4048,539.8399 C54.2018,540.2429 55.6908,541.4379 56.5228,543.0819 C64.0118,557.8769 87.9188,559.4399 104.2518,559.7659 C121.5088,560.1119 142.5628,563.9079 145.6698,576.6789 C151.8828,606.0169 133.9348,629.1419 130.1378,635.3549 C126.3418,641.5679 118.7478,672.2869 117.0218,683.6769 C116.7528,685.4549 116.5478,687.9309 116.3848,690.7629 L116.3668,690.7739 C116.3668,690.7739 116.3678,690.8689 116.3698,691.0199 C115.5088,706.3789 115.9958,733.1529 115.9958,733.1529 L116.0498,733.1519 C115.5638,749.0519 114.5228,764.7399 112.3638,770.7709 C107.9768,783.0219 90.6748,852.2239 82.4658,881.7269 C82.4658,881.7269 75.5248,905.3939 79.1698,942.9779 C82.3888,976.1699 79.5418,986.6159 82.7698,995.6189 C82.8728,995.9079 82.9188,996.2109 82.8998,996.5169 C82.8058,997.9989 82.7928,999.5099 82.8768,1001.0259 C82.8988,1001.4259 82.8178,1001.8149 82.6368,1002.1719 C77.4098,1012.4719 77.5038,1027.6989 81.4188,1036.3119 C81.4898,1031.8369 81.8328,1027.5149 82.4778,1023.5989 C82.8658,1026.8029 83.7428,1029.9889 85.3498,1032.9499 C85.2538,1030.9469 85.3158,1029.0369 85.4398,1027.1769 C85.8218,1028.5289 86.2658,1029.7999 86.7858,1030.9449 C86.8408,1027.4949 87.1128,1024.1999 87.5038,1021.0489 C87.9938,1023.3469 88.7528,1025.6109 89.9148,1027.7539 C89.8808,1027.0389 89.9368,1026.3799 89.9328,1025.6819 C90.2058,1026.3129 90.3848,1026.9689 90.7178,1027.5829 C90.6478,1026.1159 90.6418,1024.6809 90.6928,1023.2879 C90.7848,1020.7899 94.0488,1020.0889 95.2318,1022.2909 C95.2488,1022.3229 95.2658,1022.3539 95.2828,1022.3859 C95.0678,1017.9129 95.4678,1013.7649 96.2178,1010.1339 C96.5898,1008.3299 97.8478,1006.8609 99.5378,1006.1279 C103.3448,1004.4749 106.7758,1001.9729 109.2818,998.4699 C109.4118,998.2899 109.5698,998.1299 109.7508,997.9989 C114.6168,994.4859 118.2078,989.0939 118.7298,981.2279 C119.5648,968.6529 116.5748,960.0599 115.4348,957.2999 C115.1758,956.6749 115.1948,955.9909 115.4798,955.3769 C115.8578,954.5649 116.4138,953.2889 116.9658,951.7349 C123.8718,974.1539 132.9318,998.3539 136.4038,1006.0899 C140.9598,1016.2419 136.9488,1049.0479 123.6498,1070.9399 C110.3508,1092.8339 91.1578,1139.4439 120.1278,1185.6229 C149.0968,1231.8009 172.9078,1263.7899 176.1078,1273.9159 C179.3078,1284.0409 173.0918,1289.9639 152.5758,1298.9699 C132.0588,1307.9769 126.8408,1318.0219 112.6408,1315.7409 C98.4418,1313.4599 96.1138,1307.9699 85.8818,1311.1329 C75.6488,1314.2939 55.8478,1321.3019 56.4118,1327.3509 C56.9758,1333.4019 57.4518,1344.1469 79.7988,1345.9109 C97.2508,1347.2889 117.5118,1348.6419 133.3978,1345.8309 C134.4418,1345.6459 135.5098,1345.7129 136.4838,1346.1299 C139.5028,1347.4249 143.3788,1348.2899 148.4428,1348.4549 C169.2928,1349.1349 194.5488,1349.6329 209.2388,1340.5479 C223.9298,1331.4639 279.2618,1276.7689 283.3638,1270.4329 C287.4668,1264.0979 285.7518,1254.9209 276.2178,1240.6719 C272.2328,1234.7169 261.8998,1211.1989 254.2218,1190.2259 C253.4518,1188.1219 253.9488,1185.7839 255.4258,1184.0999 C255.9308,1183.5239 256.4058,1182.9599 256.8528,1182.4059 C259.8378,1178.7109 265.7248,1179.8689 267.0068,1184.4419 C269.8428,1194.5639 274.8838,1211.7989 292.6108,1245.9189 C341.2038,1339.4469 455.9698,1345.7919 547.3228,1348.0519 C587.9718,1350.6509 627.1278,1347.5519 658.6578,1343.0339 C666.0048,1341.9809 665.0498,1331.0849 657.6328,1331.3589" id="Suricato"></path>
            </g>
        </g>
    </g>
</svg>